<?xml version="1.0" encoding="UTF-8"?>
<svg xmlns="http://www.w3.org/2000/svg" xmlns:xlink="http://www.w3.org/1999/xlink" width="105pt" height="105pt" viewBox="0 0 105 105" version="1.1">
<g id="surface1">
<path style=" stroke:none;fill-rule:nonzero;fill:rgb(100%,34.117647%,13.333333%);fill-opacity:1;" d="M 60.230469 0.113281 C 59.789062 0.269531 59.542969 0.441406 59.3125 0.753906 C 58.664062 1.617188 58.824219 2.773438 59.699219 3.609375 C 59.90625 3.804688 60.082031 4.019531 60.082031 4.078125 C 60.082031 4.191406 59.832031 4.339844 59.707031 4.296875 C 59.667969 4.28125 59.300781 4.242188 58.90625 4.199219 C 58.210938 4.125 58.144531 4.101562 56.976562 3.4375 C 56.058594 2.914062 55.570312 2.574219 54.972656 2.027344 C 54.1875 1.320312 53.996094 1.222656 53.808594 1.410156 C 53.558594 1.65625 53.808594 2.296875 54.363281 2.828125 C 54.550781 3.003906 54.703125 3.183594 54.703125 3.222656 C 54.703125 3.265625 54.535156 3.550781 54.328125 3.863281 C 53.699219 4.789062 52.871094 5.40625 52.242188 5.414062 C 51.839844 5.414062 51.894531 5.191406 52.382812 4.773438 C 53.417969 3.886719 53.445312 2.632812 52.433594 2.007812 C 51.746094 1.589844 50.488281 1.65625 49.859375 2.148438 C 49.605469 2.347656 49.332031 2.886719 49.320312 3.207031 C 49.320312 3.886719 49.769531 4.601562 50.414062 4.929688 C 50.851562 5.152344 50.851562 5.414062 50.40625 5.414062 C 49.960938 5.414062 49.371094 5.003906 47.914062 3.660156 C 47.253906 3.042969 46.675781 2.542969 46.625 2.542969 C 46.484375 2.542969 46.34375 2.730469 46.34375 2.914062 C 46.34375 3.378906 47.726562 4.90625 49.207031 6.078125 C 50.015625 6.71875 50.15625 6.867188 50.242188 7.160156 C 50.382812 7.652344 50.390625 13.25 50.25 14.273438 C 50.117188 15.28125 49.933594 15.890625 49.695312 16.175781 C 49.429688 16.488281 49.503906 16.652344 49.902344 16.652344 C 50.703125 16.652344 50.785156 16.480469 51.144531 14.191406 C 51.472656 12.089844 51.621094 11.304688 51.722656 11.207031 C 51.773438 11.15625 51.804688 11.15625 51.804688 11.195312 C 51.804688 11.246094 51.855469 11.574219 51.921875 11.945312 C 51.988281 12.3125 52.101562 13.140625 52.175781 13.789062 C 52.359375 15.355469 52.507812 16.011719 52.765625 16.28125 C 52.9375 16.472656 53.011719 16.496094 53.433594 16.472656 C 54.039062 16.4375 54.082031 16.308594 53.640625 15.808594 L 53.320312 15.445312 L 53.269531 12.664062 C 53.1875 8.792969 53.195312 6.898438 53.292969 6.5625 C 53.335938 6.398438 53.507812 6.144531 53.675781 5.988281 C 54.046875 5.636719 54.511719 4.953125 54.859375 4.28125 C 55 4.003906 55.15625 3.773438 55.207031 3.773438 C 55.246094 3.773438 55.628906 4.019531 56.050781 4.316406 C 56.472656 4.609375 57.167969 5.0625 57.597656 5.316406 C 58.574219 5.882812 58.671875 5.964844 58.671875 6.234375 C 58.671875 6.359375 58.507812 6.839844 58.308594 7.308594 C 57.863281 8.375 56.9375 10.878906 56.9375 11.015625 C 56.9375 11.1875 57.199219 11.394531 57.621094 11.535156 C 57.835938 11.609375 58.027344 11.6875 58.054688 11.722656 C 58.117188 11.828125 57.605469 16.019531 57.515625 16.109375 C 57.464844 16.160156 57.273438 16.265625 57.078125 16.367188 C 56.589844 16.59375 56.597656 16.832031 57.101562 16.914062 C 57.308594 16.957031 57.640625 16.972656 57.847656 16.964844 L 58.21875 16.9375 L 58.640625 14.96875 C 59.105469 12.796875 59.226562 12.3125 59.351562 12.164062 C 59.433594 12.058594 59.808594 12.101562 59.949219 12.230469 C 60.023438 12.296875 59.898438 14.796875 59.742188 16.355469 C 59.667969 17.039062 59.667969 17.257812 59.742188 17.308594 C 59.90625 17.40625 60.972656 17.570312 61.074219 17.515625 C 61.246094 17.40625 61.148438 17.144531 60.867188 16.964844 C 60.699219 16.859375 60.550781 16.703125 60.535156 16.609375 C 60.484375 16.414062 61.179688 12.640625 61.3125 12.394531 C 61.386719 12.253906 61.488281 12.222656 61.800781 12.222656 C 62.015625 12.222656 62.28125 12.171875 62.382812 12.117188 L 62.578125 12.015625 L 62.585938 8.941406 L 62.605469 5.867188 L 63.347656 5.617188 C 63.761719 5.480469 64.316406 5.25 64.582031 5.101562 C 64.855469 4.960938 65.085938 4.847656 65.09375 4.863281 C 65.113281 4.882812 65.21875 5.347656 65.335938 5.90625 C 65.65625 7.390625 65.914062 8.128906 66.335938 8.746094 C 66.59375 9.128906 66.683594 9.34375 66.652344 9.457031 C 66.585938 9.65625 64.898438 12.722656 64.789062 12.835938 C 64.605469 13.019531 64.722656 13.191406 65.160156 13.363281 C 65.402344 13.460938 65.683594 13.601562 65.773438 13.667969 L 65.957031 13.789062 L 65.742188 14.339844 C 65.625 14.640625 65.359375 15.347656 65.152344 15.914062 C 64.714844 17.136719 64.640625 17.25 64.21875 17.515625 C 63.8125 17.769531 63.789062 17.996094 64.144531 18.121094 C 64.558594 18.261719 64.746094 18.226562 64.988281 17.980469 C 65.179688 17.785156 66.0625 15.929688 66.609375 14.578125 C 66.792969 14.125 67.023438 13.90625 66.914062 14.289062 C 66.558594 15.496094 65.941406 18.007812 65.929688 18.277344 C 65.914062 18.5625 65.957031 18.671875 66.113281 18.792969 C 66.683594 19.253906 67.1875 18.980469 66.816406 18.414062 C 66.652344 18.160156 66.660156 18.097656 67.214844 16.234375 C 67.785156 14.339844 67.785156 14.347656 68.132812 14.421875 C 68.273438 14.445312 68.53125 14.476562 68.6875 14.476562 L 68.96875 14.476562 L 69.066406 13.78125 C 69.40625 11.34375 69.53125 10.6875 69.664062 10.507812 C 69.746094 10.394531 70.0625 10.203125 70.367188 10.089844 C 71.101562 9.785156 71.574219 9.476562 72.542969 8.644531 C 73 8.261719 73.554688 7.859375 73.792969 7.75 C 74.4375 7.457031 74.496094 7.054688 73.890625 7.054688 C 73.601562 7.054688 73.4375 7.144531 72.742188 7.660156 C 71.460938 8.613281 70.078125 9.195312 69.375 9.0625 C 68.953125 8.992188 69.050781 8.808594 69.722656 8.40625 C 70.109375 8.171875 70.375 7.941406 70.53125 7.703125 C 70.738281 7.382812 70.765625 7.285156 70.738281 6.800781 C 70.707031 6.160156 70.5 5.792969 69.976562 5.464844 C 69.546875 5.183594 69.148438 5.117188 68.695312 5.242188 C 68.164062 5.382812 67.792969 5.691406 67.5625 6.183594 C 67.261719 6.824219 67.339844 7.40625 67.785156 7.90625 C 68.191406 8.367188 68.058594 8.671875 67.578125 8.375 C 67.023438 8.03125 66.230469 6.652344 65.882812 5.40625 C 65.625 4.496094 65.632812 4.460938 66.144531 4.234375 C 66.710938 3.988281 66.949219 3.742188 66.949219 3.394531 C 66.949219 2.894531 66.585938 2.960938 64.964844 3.78125 C 63.789062 4.371094 63.09375 4.5625 62.496094 4.46875 C 61.777344 4.355469 61.734375 4.332031 61.734375 4.183594 C 61.734375 4.085938 61.882812 3.953125 62.164062 3.796875 C 62.472656 3.632812 62.671875 3.453125 62.851562 3.167969 C 63.074219 2.804688 63.101562 2.691406 63.101562 2.101562 C 63.101562 1.171875 62.769531 0.605469 62.023438 0.230469 C 61.601562 0.0078125 60.660156 -0.0507812 60.230469 0.113281 Z M 60.230469 0.113281 "/>
<path style=" stroke:none;fill-rule:nonzero;fill:rgb(100%,34.117647%,13.333333%);fill-opacity:1;" d="M 45.773438 3.421875 C 45.613281 3.578125 45.449219 3.871094 45.308594 4.304688 C 44.886719 5.5625 44.015625 6.921875 43.363281 7.367188 C 43.066406 7.5625 42.964844 7.5625 42.84375 7.367188 C 42.777344 7.269531 42.824219 7.136719 43.015625 6.839844 C 43.496094 6.128906 43.546875 5.554688 43.171875 4.90625 C 42.898438 4.40625 42.445312 4.152344 41.800781 4.117188 C 41.351562 4.101562 41.195312 4.125 40.921875 4.28125 C 40.128906 4.742188 39.8125 5.773438 40.253906 6.511719 C 40.507812 6.949219 40.914062 7.277344 41.285156 7.351562 C 41.425781 7.382812 41.585938 7.472656 41.632812 7.554688 C 41.699219 7.6875 41.675781 7.726562 41.484375 7.800781 C 40.921875 8.015625 39.589844 7.359375 38.199219 6.183594 C 37.570312 5.660156 37.539062 5.546875 37.902344 5.003906 C 38.199219 4.570312 38.234375 4.117188 37.992188 3.90625 C 37.695312 3.632812 37.414062 3.921875 36.609375 5.324219 C 35.980469 6.429688 35.46875 6.980469 34.796875 7.300781 C 34.507812 7.433594 34.234375 7.546875 34.1875 7.546875 C 34.039062 7.546875 34.085938 7.160156 34.285156 6.832031 C 34.535156 6.40625 34.535156 5.59375 34.277344 5.117188 C 33.738281 4.09375 32.398438 3.660156 31.378906 4.175781 C 30.96875 4.390625 30.46875 4.871094 30.320312 5.226562 C 30.171875 5.570312 30.171875 6.40625 30.320312 6.757812 C 30.601562 7.433594 31.265625 7.90625 32.09375 8.039062 C 32.921875 8.179688 32.855469 8.40625 31.859375 8.898438 L 31.140625 9.261719 L 29.785156 9.34375 C 28.453125 9.425781 28.128906 9.410156 26.871094 9.1875 C 26.160156 9.0625 25.902344 9.121094 25.902344 9.402344 C 25.902344 9.785156 26.359375 10.058594 27.398438 10.285156 C 27.582031 10.328125 27.632812 10.394531 27.671875 10.679688 C 27.757812 11.246094 27.582031 12.28125 27.300781 12.855469 C 27.078125 13.320312 26.738281 13.699219 26.546875 13.699219 C 26.398438 13.699219 26.382812 13.421875 26.515625 13.050781 C 26.855469 12.117188 26.515625 11.105469 25.71875 10.695312 C 25.042969 10.34375 23.867188 10.804688 23.230469 11.65625 C 23.03125 11.917969 22.964844 12.109375 22.941406 12.460938 C 22.914062 12.863281 22.941406 12.96875 23.15625 13.304688 C 23.519531 13.863281 24.039062 14.132812 24.734375 14.140625 C 25.53125 14.148438 25.6875 14.289062 25.222656 14.5625 C 24.835938 14.78125 24.125 14.75 22.179688 14.40625 C 21.292969 14.257812 20.523438 14.140625 20.464844 14.167969 C 20.292969 14.234375 20.339844 14.511719 20.574219 14.726562 C 21.027344 15.144531 22.433594 15.503906 24.578125 15.75 L 25.851562 15.890625 L 26.132812 16.210938 C 26.28125 16.382812 26.886719 17.226562 27.464844 18.085938 C 29.683594 21.351562 30.628906 23.183594 30.503906 23.953125 C 30.4375 24.378906 30.601562 24.527344 30.925781 24.296875 C 31.363281 23.984375 31.472656 23.8125 31.421875 23.511719 C 31.398438 23.355469 30.941406 22.230469 30.414062 21.007812 C 29.875 19.792969 29.460938 18.753906 29.476562 18.703125 C 29.503906 18.613281 30.957031 20.203125 32.050781 21.53125 C 32.820312 22.460938 33.300781 22.640625 33.878906 22.199219 C 34.359375 21.835938 34.308594 21.753906 33.441406 21.484375 C 33.078125 21.367188 33.042969 21.328125 31.304688 18.703125 C 30.339844 17.234375 29.253906 15.59375 28.898438 15.054688 L 28.261719 14.070312 L 28.292969 13.578125 C 28.320312 13.304688 28.335938 12.527344 28.335938 11.84375 L 28.335938 10.605469 L 30.429688 10.605469 C 31.835938 10.605469 32.546875 10.640625 32.597656 10.695312 C 32.640625 10.746094 32.835938 11.625 33.050781 12.640625 C 33.492188 14.765625 33.730469 15.75 33.847656 15.863281 C 33.898438 15.914062 34.121094 15.90625 34.476562 15.839844 C 34.914062 15.757812 35.046875 15.765625 35.15625 15.847656 C 35.261719 15.945312 36.910156 19.21875 37.03125 19.589844 C 37.058594 19.679688 36.992188 19.867188 36.867188 20.046875 C 36.636719 20.382812 36.601562 20.65625 36.777344 20.722656 C 36.902344 20.769531 38.066406 20.21875 38.066406 20.105469 C 38.066406 20.074219 37.710938 19.121094 37.28125 17.988281 C 36.851562 16.859375 36.480469 15.789062 36.445312 15.617188 C 36.402344 15.316406 36.414062 15.289062 36.667969 15.199219 C 36.890625 15.117188 36.96875 15.117188 37.042969 15.199219 C 37.183594 15.347656 38.414062 17.53125 38.960938 18.597656 C 39.285156 19.234375 39.472656 19.523438 39.574219 19.523438 C 39.65625 19.523438 39.960938 19.425781 40.261719 19.300781 C 40.648438 19.144531 40.796875 19.039062 40.796875 18.933594 C 40.796875 18.761719 40.5 18.621094 40.136719 18.621094 C 39.972656 18.621094 39.855469 18.554688 39.773438 18.433594 C 39.632812 18.21875 38.265625 14.890625 38.183594 14.578125 C 38.160156 14.453125 38.167969 14.355469 38.214844 14.355469 C 38.332031 14.355469 39.058594 13.699219 39.058594 13.601562 C 39.058594 13.550781 38.976562 13.394531 38.871094 13.257812 C 38.761719 13.117188 38.40625 12.558594 38.066406 12.015625 C 37.738281 11.476562 37.074219 10.476562 36.601562 9.785156 C 36.140625 9.097656 35.75 8.5 35.75 8.441406 C 35.75 8.390625 35.914062 8.152344 36.121094 7.914062 C 36.328125 7.679688 36.675781 7.1875 36.902344 6.824219 L 37.296875 6.167969 L 38.160156 7.046875 C 39.183594 8.089844 39.886719 8.621094 40.550781 8.867188 C 40.816406 8.964844 41.054688 9.097656 41.089844 9.171875 C 41.113281 9.246094 41.195312 10.1875 41.269531 11.269531 C 41.34375 12.363281 41.4375 13.28125 41.46875 13.328125 C 41.519531 13.378906 41.757812 13.371094 42.140625 13.304688 C 42.460938 13.25 42.757812 13.230469 42.800781 13.273438 C 42.890625 13.363281 43.613281 16.53125 43.613281 16.839844 C 43.613281 16.972656 43.539062 17.1875 43.4375 17.316406 C 43.332031 17.472656 43.289062 17.613281 43.324219 17.726562 C 43.371094 17.882812 43.429688 17.898438 43.71875 17.859375 C 43.933594 17.824219 44.125 17.742188 44.207031 17.636719 C 44.457031 17.332031 44.421875 16.949219 43.941406 14.085938 C 43.652344 12.402344 43.734375 12.535156 44.5625 15.054688 C 45.308594 17.308594 45.382812 17.429688 45.988281 17.367188 C 46.1875 17.351562 46.394531 17.292969 46.441406 17.242188 C 46.582031 17.101562 46.441406 16.859375 46.144531 16.71875 C 45.988281 16.636719 45.839844 16.488281 45.789062 16.347656 C 45.582031 15.800781 44.84375 13.207031 44.828125 12.992188 C 44.8125 12.765625 44.871094 12.714844 45.472656 12.453125 C 45.640625 12.378906 45.722656 12.289062 45.714844 12.179688 C 45.707031 12.089844 45.375 11.3125 44.976562 10.460938 C 44.582031 9.597656 44.234375 8.777344 44.214844 8.628906 C 44.183594 8.40625 44.242188 8.261719 44.546875 7.808594 C 45.035156 7.113281 45.277344 6.554688 45.648438 5.308594 C 45.8125 4.757812 46.054688 4.140625 46.1875 3.945312 C 46.449219 3.542969 46.476562 3.445312 46.328125 3.296875 C 46.175781 3.148438 46.035156 3.175781 45.773438 3.421875 Z M 45.773438 3.421875 "/>
<path style=" stroke:none;fill-rule:nonzero;fill:rgb(100%,34.117647%,13.333333%);fill-opacity:1;" d="M 74.605469 6.839844 C 74.464844 6.949219 74.4375 7.046875 74.453125 7.605469 C 74.472656 8.515625 74.660156 9.457031 75.140625 10.941406 C 75.375 11.65625 75.554688 12.296875 75.554688 12.378906 C 75.554688 12.691406 73.46875 16.070312 72.261719 17.71875 C 71.410156 18.875 70.558594 19.746094 70.136719 19.882812 C 69.636719 20.054688 69.648438 20.277344 70.167969 20.5 C 70.390625 20.589844 70.613281 20.671875 70.65625 20.671875 C 70.820312 20.671875 71.21875 20.277344 72.609375 18.761719 C 74.171875 17.046875 74.5625 16.652344 74.5625 16.792969 C 74.5625 16.921875 74.089844 17.972656 73.421875 19.359375 C 72.417969 21.417969 72.378906 21.730469 73.046875 22.148438 C 73.578125 22.484375 73.675781 22.386719 73.609375 21.664062 L 73.554688 21.125 L 74.710938 19.320312 C 75.339844 18.324219 76.417969 16.644531 77.101562 15.585938 L 78.335938 13.65625 L 78.957031 13.484375 C 79.726562 13.265625 80.488281 12.945312 81.015625 12.625 C 81.242188 12.484375 81.464844 12.394531 81.503906 12.417969 C 81.546875 12.445312 81.722656 12.828125 81.886719 13.265625 C 82.058594 13.707031 82.441406 14.542969 82.738281 15.132812 L 83.269531 16.191406 L 83.035156 16.390625 C 82.90625 16.496094 81.945312 17.21875 80.894531 17.996094 C 78.75 19.589844 78.792969 19.53125 79.289062 20.21875 C 79.511719 20.53125 79.542969 20.613281 79.46875 20.769531 C 79.421875 20.875 78.792969 21.65625 78.078125 22.507812 L 76.78125 24.050781 L 76.324219 24.003906 C 75.886719 23.953125 75.636719 24.027344 75.636719 24.199219 C 75.636719 24.28125 76.664062 25.101562 76.765625 25.101562 C 76.796875 25.101562 77.617188 24.320312 78.578125 23.378906 C 79.542969 22.425781 80.386719 21.65625 80.453125 21.65625 C 80.519531 21.65625 80.660156 21.746094 80.769531 21.859375 L 80.960938 22.058594 L 80.347656 22.902344 C 79.859375 23.574219 78.351562 25.554688 77.929688 26.070312 C 77.863281 26.152344 77.964844 26.300781 78.335938 26.667969 C 78.601562 26.929688 78.867188 27.152344 78.921875 27.152344 C 79.128906 27.152344 79.1875 26.882812 79.054688 26.554688 C 78.964844 26.332031 78.949219 26.175781 79 26.035156 C 79.039062 25.929688 79.734375 25.167969 80.539062 24.332031 L 82.011719 22.820312 L 82.441406 23.058594 C 83.0625 23.394531 83.195312 23.371094 83.46875 22.910156 C 83.589844 22.699219 84.054688 21.984375 84.492188 21.328125 C 84.933594 20.671875 85.542969 19.726562 85.84375 19.226562 C 86.148438 18.726562 86.445312 18.269531 86.511719 18.21875 C 86.601562 18.144531 86.746094 18.152344 87.148438 18.292969 C 87.570312 18.425781 88.738281 18.621094 89.175781 18.621094 C 89.234375 18.621094 89.121094 19.007812 88.902344 19.539062 C 88.375 20.886719 88.207031 21.507812 88.152344 22.46875 L 88.09375 23.328125 L 86.769531 24.058594 C 86.039062 24.460938 85.214844 24.898438 84.933594 25.035156 C 84.640625 25.167969 84.410156 25.332031 84.410156 25.378906 C 84.410156 25.4375 84.558594 25.71875 84.742188 25.996094 C 84.921875 26.273438 85.054688 26.539062 85.03125 26.578125 C 84.964844 26.683594 82.605469 28.457031 82.273438 28.652344 C 82.085938 28.769531 81.871094 28.816406 81.597656 28.800781 C 81.375 28.792969 81.167969 28.835938 81.140625 28.875 C 81.035156 29.046875 81.191406 29.359375 81.472656 29.53125 C 81.730469 29.6875 81.796875 29.695312 82.058594 29.613281 C 82.226562 29.554688 83.101562 29.015625 84.011719 28.40625 C 84.921875 27.800781 85.691406 27.324219 85.71875 27.359375 C 85.777344 27.40625 85.832031 27.347656 84.21875 28.792969 C 83.019531 29.859375 82.425781 30.507812 82.425781 30.738281 C 82.425781 30.910156 82.828125 31.5 82.945312 31.5 C 83.128906 31.5 83.25 31.3125 83.25 31.039062 C 83.25 30.902344 83.316406 30.703125 83.402344 30.613281 C 83.640625 30.320312 86.015625 28.292969 86.214844 28.195312 C 86.378906 28.121094 86.445312 28.144531 86.753906 28.449219 C 86.949219 28.636719 87.148438 28.792969 87.199219 28.792969 C 87.25 28.792969 87.390625 28.652344 87.523438 28.488281 C 87.644531 28.324219 88.078125 27.832031 88.464844 27.398438 C 88.855469 26.964844 89.316406 26.429688 89.507812 26.210938 C 89.890625 25.75 89.738281 25.773438 91.535156 25.882812 C 92.273438 25.929688 92.742188 25.90625 93.503906 25.796875 C 94.152344 25.707031 94.679688 25.675781 94.96875 25.71875 C 95.449219 25.773438 95.664062 25.691406 95.664062 25.4375 C 95.664062 25.117188 95.367188 25.070312 93.597656 25.0625 C 92.066406 25.050781 91.84375 25.035156 91.34375 24.871094 C 91.039062 24.765625 90.683594 24.601562 90.558594 24.496094 C 90.359375 24.320312 90.34375 24.28125 90.441406 24.167969 C 90.542969 24.050781 90.660156 24.035156 91.105469 24.085938 C 91.84375 24.148438 92.3125 24.019531 92.6875 23.632812 C 92.984375 23.328125 93.183594 22.84375 93.183594 22.460938 C 93.183594 21.894531 92.753906 21.214844 92.230469 20.933594 C 91.898438 20.761719 91.0625 20.769531 90.726562 20.941406 C 90.128906 21.253906 89.722656 22.074219 89.839844 22.746094 C 89.890625 23.058594 89.8125 23.207031 89.597656 23.214844 C 89.433594 23.214844 89.210938 22.492188 89.210938 21.925781 C 89.210938 21.039062 89.632812 19.046875 89.890625 18.726562 C 89.945312 18.652344 90.152344 18.636719 90.601562 18.679688 C 91.171875 18.71875 91.261719 18.703125 91.46875 18.539062 C 92.023438 18.105469 91.617188 17.84375 90.1875 17.710938 C 88.5 17.5625 87.828125 17.359375 87.082031 16.757812 C 86.519531 16.308594 86.628906 16.160156 87.515625 16.183594 C 88.175781 16.191406 88.863281 15.742188 89.234375 15.054688 C 89.46875 14.617188 89.484375 13.707031 89.269531 13.28125 C 88.828125 12.402344 87.761719 11.84375 86.867188 12.007812 C 86.472656 12.082031 85.875 12.492188 85.617188 12.878906 C 85.261719 13.421875 85.1875 13.90625 85.363281 14.609375 C 85.496094 15.183594 85.496094 15.207031 85.355469 15.316406 C 85.195312 15.429688 85.261719 15.472656 84.453125 14.816406 C 83.871094 14.355469 83.757812 14.183594 83.035156 12.773438 C 82.664062 12.042969 82.425781 11.445312 82.265625 10.820312 C 82.011719 9.867188 81.917969 9.679688 81.671875 9.679688 C 81.300781 9.679688 81.117188 10.507812 81.347656 11.1875 C 81.472656 11.574219 81.421875 11.6875 81.042969 11.886719 C 80.089844 12.363281 78.75 12.542969 78.203125 12.265625 C 77.730469 12.027344 77.980469 11.730469 78.640625 11.730469 C 79.609375 11.730469 80.511719 10.648438 80.273438 9.761719 C 80.148438 9.3125 79.898438 8.984375 79.496094 8.703125 C 78.742188 8.1875 77.871094 8.046875 77.359375 8.34375 C 76.972656 8.5625 76.632812 9.15625 76.574219 9.703125 C 76.53125 10.097656 76.558594 10.230469 76.753906 10.625 C 76.914062 10.953125 76.960938 11.132812 76.914062 11.246094 C 76.839844 11.394531 76.828125 11.394531 76.574219 11.230469 C 76.152344 10.96875 75.96875 10.460938 75.207031 7.507812 C 75.007812 6.734375 74.910156 6.621094 74.605469 6.839844 Z M 74.605469 6.839844 "/>
<path style=" stroke:none;fill-rule:nonzero;fill:rgb(100%,34.117647%,13.333333%);fill-opacity:1;" d="M 20.324219 15.109375 C 20.152344 15.355469 20.160156 15.742188 20.367188 16.488281 C 20.582031 17.277344 20.664062 18.828125 20.53125 19.464844 C 20.472656 19.738281 20.339844 20.03125 20.226562 20.164062 C 20.035156 20.375 20.027344 20.382812 19.902344 20.230469 C 19.820312 20.121094 19.777344 19.882812 19.777344 19.546875 C 19.777344 18.664062 19.347656 18.085938 18.511719 17.875 C 18.199219 17.785156 18.050781 17.785156 17.734375 17.867188 C 16.285156 18.25 15.972656 20.015625 17.195312 20.867188 C 17.511719 21.089844 17.617188 21.113281 18.066406 21.105469 C 18.347656 21.097656 18.695312 21.082031 18.828125 21.066406 C 19.027344 21.050781 19.074219 21.074219 19.074219 21.203125 C 19.074219 21.320312 18.949219 21.425781 18.660156 21.574219 C 18.273438 21.769531 18.171875 21.78125 16.882812 21.78125 C 15.390625 21.78125 14.796875 21.714844 14.605469 21.523438 C 14.523438 21.433594 14.480469 21.230469 14.480469 20.867188 C 14.480469 20.382812 14.457031 20.3125 14.242188 20.089844 C 13.945312 19.800781 13.863281 19.792969 13.695312 20.046875 C 13.589844 20.210938 13.570312 20.507812 13.582031 21.828125 C 13.597656 23.183594 13.582031 23.484375 13.449219 23.828125 C 13.257812 24.378906 12.820312 25.027344 12.660156 25.003906 C 12.585938 24.988281 12.503906 24.78125 12.4375 24.453125 C 12.191406 23.222656 11.347656 22.558594 10.179688 22.664062 C 9.625 22.714844 9.292969 22.863281 8.894531 23.257812 C 8.027344 24.125 7.996094 25.378906 8.820312 26.199219 C 9.410156 26.773438 10.1875 26.945312 10.964844 26.660156 C 11.59375 26.429688 11.859375 26.414062 11.898438 26.59375 C 11.917969 26.667969 11.75 27.039062 11.527344 27.40625 C 11.179688 28.003906 11.039062 28.152344 10.386719 28.628906 C 9.253906 29.464844 8.546875 29.882812 7.796875 30.1875 C 6.746094 30.597656 6.496094 30.851562 6.886719 31.121094 C 7.140625 31.304688 7.746094 31.285156 8.183594 31.089844 C 8.730469 30.84375 8.804688 30.867188 9.1875 31.46875 C 9.632812 32.164062 9.855469 32.8125 9.863281 33.402344 C 9.871094 33.886719 9.683594 34.328125 9.492188 34.265625 C 9.441406 34.25 9.34375 34 9.269531 33.707031 C 9.101562 33.050781 8.929688 32.78125 8.472656 32.515625 C 7.6875 32.058594 7.167969 32.074219 6.59375 32.566406 C 6.105469 33 5.769531 33.746094 5.761719 34.414062 C 5.761719 35.019531 5.925781 35.363281 6.371094 35.652344 C 6.984375 36.054688 8.144531 35.988281 8.566406 35.519531 C 8.765625 35.304688 9.101562 35.296875 9.101562 35.511719 C 9.101562 35.960938 8.125 36.546875 5.925781 37.414062 C 5.429688 37.601562 4.957031 37.824219 4.867188 37.890625 C 4.726562 38.003906 4.726562 38.039062 4.832031 38.1875 C 5.179688 38.652344 7.007812 38.136719 9.566406 36.855469 L 10.328125 36.472656 L 11.429688 36.90625 C 14.507812 38.121094 17.320312 39.523438 18.148438 40.269531 C 18.332031 40.433594 18.527344 40.6875 18.59375 40.828125 C 18.753906 41.203125 18.992188 41.1875 19.15625 40.800781 C 19.449219 40.121094 19.332031 40 16.792969 38.300781 C 15.121094 37.183594 14.761719 36.914062 14.980469 36.914062 C 15.167969 36.914062 16.097656 37.167969 17.542969 37.628906 C 19.050781 38.09375 19.796875 38.226562 20.085938 38.078125 C 20.175781 38.03125 20.332031 37.816406 20.433594 37.601562 C 20.597656 37.265625 20.605469 37.203125 20.5 37.09375 C 20.390625 36.988281 20.324219 36.996094 19.945312 37.117188 C 19.554688 37.25 19.488281 37.25 19.125 37.128906 C 18.820312 37.027344 13.058594 34.484375 11.402344 33.714844 C 11.246094 33.640625 11.113281 33.445312 10.921875 33.015625 C 10.667969 32.433594 10.0625 31.460938 9.640625 30.957031 L 9.425781 30.695312 L 9.988281 30.382812 C 10.707031 29.992188 11.734375 29.335938 12.40625 28.851562 C 12.695312 28.636719 12.96875 28.464844 13.015625 28.464844 C 13.066406 28.464844 13.96875 29.316406 15.027344 30.359375 C 17.1875 32.492188 16.972656 32.378906 17.667969 31.738281 L 18.015625 31.425781 L 19.730469 32.433594 C 21.824219 33.671875 21.878906 33.722656 21.824219 34.191406 C 21.789062 34.527344 21.90625 34.78125 22.09375 34.78125 C 22.179688 34.78125 22.839844 33.707031 22.839844 33.574219 C 22.839844 33.527344 22.085938 32.925781 21.167969 32.253906 C 19.480469 31.015625 18.867188 30.515625 18.867188 30.382812 C 18.875 30.261719 19.175781 29.941406 19.28125 29.941406 C 19.40625 29.941406 20.464844 30.5 22.210938 31.476562 C 23.917969 32.433594 23.765625 32.402344 24.140625 31.859375 C 24.3125 31.605469 24.488281 31.351562 24.535156 31.285156 C 24.59375 31.203125 24.578125 31.132812 24.480469 31.03125 C 24.339844 30.902344 24.3125 30.902344 24.007812 31.074219 C 23.832031 31.171875 23.625 31.253906 23.542969 31.253906 C 23.335938 31.253906 20.058594 28.988281 19.925781 28.761719 C 19.894531 28.703125 19.9375 28.441406 20.027344 28.195312 C 20.242188 27.585938 20.234375 27.496094 19.96875 27.382812 C 19.835938 27.332031 18.976562 26.9375 18.039062 26.511719 C 17.113281 26.085938 16.164062 25.667969 15.929688 25.578125 C 15.078125 25.25 14.574219 24.996094 14.53125 24.886719 C 14.507812 24.824219 14.523438 24.585938 14.574219 24.355469 C 14.621094 24.132812 14.648438 23.558594 14.632812 23.082031 L 14.605469 22.214844 L 14.8125 22.261719 C 14.929688 22.289062 15.433594 22.402344 15.929688 22.515625 C 17.03125 22.773438 18.363281 22.871094 18.902344 22.730469 C 19.167969 22.664062 19.339844 22.664062 19.4375 22.722656 C 19.523438 22.765625 19.859375 23.15625 20.183594 23.601562 C 21.714844 25.683594 21.929688 25.960938 22.039062 25.988281 C 22.09375 25.996094 22.359375 25.824219 22.625 25.59375 L 23.105469 25.183594 L 24.289062 26.316406 C 25.777344 27.726562 25.84375 27.816406 25.859375 28.277344 C 25.878906 28.628906 25.984375 28.792969 26.207031 28.792969 C 26.390625 28.792969 26.753906 28.160156 26.695312 27.941406 C 26.621094 27.652344 26.160156 27.070312 24.949219 25.765625 C 24.363281 25.125 23.867188 24.570312 23.851562 24.527344 C 23.777344 24.332031 24.03125 24.503906 24.992188 25.316406 C 27.285156 27.242188 27.597656 27.40625 28.136719 26.90625 C 28.351562 26.703125 28.386719 26.644531 28.300781 26.496094 C 28.226562 26.363281 28.128906 26.332031 27.796875 26.332031 C 27.410156 26.332031 27.351562 26.308594 26.910156 25.898438 C 26.65625 25.660156 26.066406 25.140625 25.613281 24.757812 C 24.421875 23.75 24.453125 23.789062 24.703125 23.453125 C 25.082031 22.929688 25.132812 22.789062 24.960938 22.691406 C 24.089844 22.171875 22.003906 20.8125 21.832031 20.648438 C 21.609375 20.441406 21.597656 20.410156 21.597656 19.574219 C 21.597656 18.621094 21.484375 17.964844 21.101562 16.800781 C 20.9375 16.273438 20.863281 15.882812 20.871094 15.601562 C 20.894531 14.988281 20.597656 14.726562 20.324219 15.109375 Z M 20.324219 15.109375 "/>
<path style=" stroke:none;fill-rule:nonzero;fill:rgb(100%,34.117647%,13.333333%);fill-opacity:1;" d="M 95.824219 25.601562 C 95.335938 26.117188 94.8125 27.429688 94.292969 29.398438 C 94.140625 29.972656 93.953125 30.523438 93.878906 30.605469 C 93.710938 30.785156 90.675781 32.289062 89.375 32.835938 C 87.027344 33.820312 85.808594 34.15625 85.269531 33.96875 C 85.015625 33.878906 84.957031 33.878906 84.847656 33.984375 C 84.734375 34.101562 84.742188 34.140625 84.898438 34.402344 C 85.128906 34.773438 85.378906 34.945312 85.660156 34.945312 C 85.785156 34.945312 86.527344 34.765625 87.316406 34.542969 C 89.285156 33.984375 90.441406 33.699219 90.609375 33.730469 C 90.75 33.765625 89.417969 34.667969 88.011719 35.488281 C 86.960938 36.101562 86.398438 36.617188 86.398438 36.980469 C 86.398438 37.375 86.636719 37.816406 86.851562 37.816406 C 86.992188 37.816406 87.066406 37.726562 87.175781 37.464844 C 87.25 37.265625 87.398438 37.019531 87.503906 36.921875 C 87.695312 36.742188 89.070312 36.09375 93.289062 34.164062 L 95.597656 33.117188 L 96.3125 33.328125 C 97.046875 33.550781 98.074219 33.714844 98.652344 33.714844 C 98.933594 33.714844 98.976562 33.738281 98.941406 33.855469 C 98.84375 34.175781 98.488281 36.421875 98.4375 37.101562 C 98.378906 37.742188 98.355469 37.832031 98.199219 37.898438 C 98.097656 37.929688 97.089844 38.023438 95.953125 38.09375 C 92.925781 38.292969 92.933594 38.292969 92.84375 38.546875 C 92.792969 38.660156 92.769531 38.964844 92.785156 39.210938 L 92.808594 39.664062 L 90.914062 40.292969 C 89.871094 40.636719 88.902344 40.933594 88.773438 40.957031 C 88.574219 40.984375 88.457031 40.933594 88.207031 40.710938 C 87.976562 40.507812 87.84375 40.441406 87.71875 40.484375 C 87.628906 40.507812 87.554688 40.582031 87.554688 40.628906 C 87.5625 40.828125 87.960938 41.875 88.035156 41.902344 C 88.085938 41.917969 88.953125 41.746094 89.972656 41.523438 C 92.214844 41.03125 92.933594 40.902344 93.023438 40.992188 C 93.066406 41.03125 93.109375 41.179688 93.117188 41.335938 L 93.140625 41.605469 L 91.777344 42.132812 C 91.023438 42.425781 89.972656 42.8125 89.433594 43 C 88.886719 43.1875 88.433594 43.386719 88.40625 43.453125 C 88.339844 43.625 88.640625 44.714844 88.761719 44.765625 C 88.929688 44.828125 89.128906 44.632812 89.128906 44.421875 C 89.128906 44.117188 89.210938 43.96875 89.476562 43.835938 C 89.773438 43.679688 93.511719 42.804688 93.644531 42.851562 C 93.695312 42.871094 93.820312 43.050781 93.917969 43.253906 C 94.019531 43.453125 94.167969 43.679688 94.257812 43.765625 C 94.40625 43.894531 94.433594 43.894531 94.621094 43.78125 C 94.730469 43.707031 95.457031 43.371094 96.234375 43.023438 C 97.003906 42.6875 98.132812 42.171875 98.734375 41.875 C 99.332031 41.582031 99.886719 41.34375 99.96875 41.34375 C 100.050781 41.34375 100.316406 41.574219 100.574219 41.859375 C 100.820312 42.140625 101.25 42.53125 101.53125 42.738281 C 101.804688 42.933594 102.039062 43.125 102.039062 43.148438 C 102.039062 43.171875 101.640625 43.46875 101.152344 43.804688 C 100.066406 44.566406 99.238281 45.363281 98.894531 45.96875 L 98.628906 46.429688 L 98.121094 46.429688 C 97.625 46.421875 96.078125 46.324219 94.863281 46.214844 L 94.257812 46.160156 L 94.257812 46.816406 C 94.257812 47.25 94.226562 47.503906 94.160156 47.554688 C 94.058594 47.636719 93.589844 47.675781 91.320312 47.792969 L 90.328125 47.847656 L 90.0625 47.628906 C 89.707031 47.332031 89.507812 47.375 89.476562 47.734375 C 89.441406 48.085938 89.574219 48.347656 89.855469 48.480469 C 90.003906 48.546875 90.699219 48.570312 92.164062 48.554688 C 93.316406 48.546875 94.28125 48.5625 94.316406 48.585938 C 94.339844 48.621094 94.347656 48.644531 94.332031 48.644531 C 93.265625 48.777344 90.085938 49.382812 89.90625 49.507812 C 89.683594 49.644531 89.597656 49.890625 89.640625 50.292969 C 89.671875 50.6875 89.929688 50.703125 90.269531 50.335938 C 90.417969 50.171875 90.617188 50.03125 90.726562 50.007812 C 91.558594 49.859375 94.265625 49.53125 94.367188 49.570312 C 94.433594 49.597656 94.515625 49.777344 94.546875 49.972656 C 94.628906 50.449219 94.738281 50.636719 94.902344 50.589844 C 97.023438 49.972656 98.535156 49.546875 98.652344 49.546875 C 98.734375 49.546875 99.015625 49.734375 99.28125 49.964844 C 99.984375 50.582031 100.730469 51.039062 101.746094 51.484375 C 102.246094 51.703125 102.78125 51.992188 102.949219 52.132812 C 103.320312 52.46875 103.476562 52.515625 103.667969 52.375 C 103.808594 52.269531 103.808594 52.253906 103.652344 51.949219 C 103.519531 51.695312 103.335938 51.566406 102.683594 51.21875 C 101.722656 50.71875 101.136719 50.285156 100.472656 49.578125 C 100.011719 49.09375 99.804688 48.675781 99.925781 48.480469 C 100.019531 48.332031 100.183594 48.390625 100.605469 48.726562 C 101.117188 49.128906 101.351562 49.21875 101.90625 49.21875 C 103.023438 49.21875 103.816406 48.03125 103.410156 46.972656 C 103.15625 46.304688 102.292969 45.78125 101.65625 45.878906 C 101.160156 45.960938 100.515625 46.4375 100.308594 46.882812 C 100.183594 47.144531 100.085938 47.25 99.984375 47.234375 C 99.5625 47.152344 99.960938 46.117188 100.796875 45.140625 C 101.332031 44.519531 102.417969 43.558594 102.582031 43.558594 C 102.640625 43.558594 102.863281 43.707031 103.070312 43.886719 C 103.503906 44.257812 103.785156 44.355469 104.097656 44.246094 C 104.609375 44.066406 104.347656 43.648438 103.15625 42.730469 C 101.820312 41.710938 101.390625 41.15625 101.175781 40.144531 C 101.09375 39.777344 101.292969 39.734375 101.722656 40.023438 C 102.21875 40.351562 102.648438 40.464844 103.121094 40.417969 C 104.253906 40.277344 105.097656 39.269531 104.992188 38.152344 C 104.792969 35.945312 102.011719 35.445312 101.078125 37.4375 C 100.96875 37.667969 100.878906 37.914062 100.878906 37.988281 C 100.878906 38.0625 100.820312 38.167969 100.746094 38.234375 C 100.523438 38.414062 100.367188 38.21875 100.109375 37.4375 C 99.886719 36.757812 99.878906 36.652344 99.917969 35.847656 C 100.011719 34.453125 100.125 33.722656 100.441406 32.789062 C 100.761719 31.804688 100.761719 31.5 100.421875 31.5 C 100.09375 31.5 99.738281 31.894531 99.523438 32.484375 L 99.324219 33.015625 L 98.800781 33.015625 C 98.148438 33.007812 97.503906 32.820312 96.90625 32.46875 C 96.507812 32.230469 96.078125 31.761719 96.078125 31.566406 C 96.078125 31.386719 96.375 31.417969 96.839844 31.65625 C 97.460938 31.976562 97.933594 31.992188 98.527344 31.714844 C 99.53125 31.253906 99.695312 30.171875 98.941406 29.007812 C 98.570312 28.433594 98.230469 28.195312 97.691406 28.152344 C 96.742188 28.078125 95.832031 29 95.832031 30.039062 C 95.832031 30.335938 95.605469 30.441406 95.449219 30.226562 C 95.183594 29.875 95.34375 29.0625 96.128906 26.71875 C 96.476562 25.683594 96.515625 25.496094 96.410156 25.429688 C 96.203125 25.296875 96.070312 25.339844 95.824219 25.601562 Z M 95.824219 25.601562 "/>
<path style=" stroke:none;fill-rule:nonzero;fill:rgb(100%,34.117647%,13.333333%);fill-opacity:1;" d="M 5.273438 38.53125 C 5.164062 38.636719 5.214844 39.085938 5.363281 39.292969 C 5.445312 39.40625 5.808594 39.800781 6.183594 40.164062 C 7.449219 41.433594 8.359375 43.351562 7.6875 43.351562 C 7.628906 43.351562 7.414062 43.140625 7.222656 42.886719 C 7.027344 42.625 6.746094 42.335938 6.605469 42.238281 C 5.964844 41.785156 4.800781 42.039062 4.34375 42.730469 C 4.105469 43.089844 4.003906 43.625 4.089844 44.082031 C 4.164062 44.460938 4.800781 45.15625 5.1875 45.289062 C 5.761719 45.476562 6.605469 45.214844 7.050781 44.714844 C 7.191406 44.558594 7.332031 44.484375 7.40625 44.511719 C 7.6875 44.625 7.472656 45.066406 6.851562 45.660156 C 6.289062 46.191406 5.800781 46.519531 4.941406 46.929688 C 4.03125 47.355469 3.824219 47.375 3.609375 47.011719 C 3.269531 46.460938 3.019531 46.265625 2.664062 46.265625 C 2.464844 46.265625 2.316406 46.304688 2.292969 46.371094 C 2.226562 46.554688 2.523438 47.125 3.195312 48.085938 C 4.03125 49.292969 4.230469 49.726562 4.277344 50.53125 C 4.320312 51.097656 4.3125 51.1875 4.1875 51.238281 C 4.078125 51.277344 3.921875 51.164062 3.609375 50.835938 C 3.269531 50.480469 3.070312 50.351562 2.730469 50.253906 C 2.175781 50.089844 2.042969 50.089844 1.496094 50.253906 C -0.445312 50.820312 -0.480469 53.714844 1.449219 54.273438 C 2.367188 54.535156 3.226562 54.191406 3.808594 53.335938 C 4.304688 52.613281 4.550781 52.804688 4.550781 53.925781 C 4.550781 54.484375 4.5 54.757812 4.304688 55.3125 C 3.855469 56.578125 3.476562 57.355469 2.886719 58.226562 C 2.242188 59.195312 2.191406 59.414062 2.632812 59.457031 C 2.996094 59.488281 3.359375 59.25 3.722656 58.734375 C 3.890625 58.496094 4.078125 58.324219 4.171875 58.324219 C 4.410156 58.324219 5.328125 58.785156 5.777344 59.136719 C 6.265625 59.523438 6.703125 60.152344 6.703125 60.472656 C 6.703125 60.800781 6.503906 60.769531 6.066406 60.367188 C 5.601562 59.949219 5.253906 59.800781 4.699219 59.800781 C 3.5 59.800781 2.839844 60.792969 3.179688 62.097656 C 3.417969 63.015625 3.839844 63.476562 4.511719 63.558594 C 5.3125 63.648438 6.191406 63.066406 6.453125 62.269531 C 6.539062 62.007812 6.605469 61.933594 6.761719 61.933594 C 6.917969 61.933594 6.953125 61.976562 6.953125 62.210938 C 6.953125 62.769531 6.746094 63.164062 5.445312 65.019531 C 5 65.65625 4.632812 66.257812 4.632812 66.355469 C 4.632812 66.570312 4.933594 66.59375 5.289062 66.414062 C 5.851562 66.125 6.992188 64.640625 7.984375 62.933594 C 8.199219 62.566406 8.441406 62.21875 8.523438 62.179688 C 8.886719 61.984375 12.445312 61.390625 14.5 61.195312 C 15.027344 61.136719 15.90625 61.105469 16.445312 61.121094 C 17.269531 61.144531 17.46875 61.179688 17.734375 61.335938 C 18.15625 61.589844 18.320312 61.515625 18.253906 61.089844 C 18.171875 60.613281 18.074219 60.472656 17.726562 60.375 C 17.5625 60.324219 16.542969 60.269531 15.476562 60.242188 C 13.257812 60.203125 12.445312 60.144531 12.546875 60.046875 C 12.644531 59.957031 13.746094 59.621094 15.25 59.226562 C 17.355469 58.667969 17.691406 58.4375 17.585938 57.667969 C 17.550781 57.445312 17.496094 57.234375 17.453125 57.207031 C 17.3125 57.125 17.089844 57.25 16.921875 57.503906 C 16.832031 57.644531 16.675781 57.808594 16.574219 57.875 C 16.46875 57.945312 15.765625 58.085938 15.003906 58.203125 C 14.234375 58.308594 12.511719 58.570312 11.164062 58.773438 C 9.804688 58.980469 8.433594 59.167969 8.09375 59.195312 C 7.53125 59.242188 7.472656 59.234375 7.242188 59.039062 C 6.769531 58.652344 5.800781 58.175781 4.660156 57.789062 C 4.59375 57.765625 4.757812 57.371094 5.121094 56.667969 C 5.429688 56.070312 5.800781 55.257812 5.957031 54.855469 C 6.347656 53.851562 6.324219 53.863281 7.324219 54.109375 C 7.777344 54.214844 8.9375 54.46875 9.890625 54.671875 C 11.882812 55.09375 11.816406 55.101562 12.023438 54.3125 C 12.082031 54.074219 12.191406 53.84375 12.257812 53.8125 C 12.414062 53.730469 16.386719 53.625 16.574219 53.6875 C 16.660156 53.722656 16.792969 53.886719 16.882812 54.058594 C 16.972656 54.230469 17.089844 54.386719 17.148438 54.402344 C 17.402344 54.5 17.460938 54.371094 17.460938 53.679688 C 17.460938 53.195312 17.429688 52.976562 17.363281 52.953125 C 17.304688 52.933594 16.402344 52.859375 15.351562 52.789062 C 13.53125 52.671875 13.066406 52.625 12.5625 52.53125 C 12.355469 52.492188 12.332031 52.449219 12.332031 52.164062 C 12.332031 51.902344 12.363281 51.84375 12.519531 51.8125 C 12.875 51.738281 14.789062 51.589844 16.039062 51.539062 C 16.742188 51.515625 17.355469 51.449219 17.410156 51.402344 C 17.496094 51.34375 17.535156 51.089844 17.5625 50.65625 C 17.585938 50.007812 17.585938 50 17.386719 50 C 17.230469 50 17.136719 50.078125 17.007812 50.328125 L 16.839844 50.65625 L 14.9375 50.628906 C 13.886719 50.621094 12.851562 50.582031 12.621094 50.546875 C 12.214844 50.492188 12.207031 50.480469 12.148438 50.144531 C 12.125 49.957031 12.03125 49.6875 11.957031 49.546875 C 11.84375 49.324219 11.785156 49.292969 11.601562 49.332031 C 11.476562 49.359375 10.933594 49.433594 10.386719 49.507812 C 9.839844 49.578125 8.597656 49.769531 7.628906 49.933594 C 6.652344 50.089844 5.808594 50.195312 5.75 50.171875 C 5.683594 50.144531 5.503906 49.859375 5.347656 49.523438 C 5.179688 49.1875 4.882812 48.6875 4.667969 48.398438 C 4.460938 48.121094 4.304688 47.882812 4.320312 47.867188 C 4.335938 47.847656 4.773438 47.683594 5.296875 47.496094 C 6.613281 47.035156 7.496094 46.585938 8.042969 46.101562 C 8.300781 45.871094 8.566406 45.691406 8.632812 45.691406 C 8.765625 45.691406 11.0625 46.519531 11.957031 46.882812 C 12.230469 46.996094 12.496094 47.085938 12.554688 47.085938 C 12.644531 47.085938 12.910156 46.429688 12.910156 46.183594 C 12.910156 46.109375 12.960938 45.988281 13.015625 45.914062 C 13.109375 45.78125 13.234375 45.796875 14.847656 46.140625 C 16.625 46.519531 16.867188 46.609375 17.097656 46.972656 C 17.195312 47.117188 17.296875 47.167969 17.453125 47.152344 C 17.644531 47.125 17.667969 47.085938 17.691406 46.742188 C 17.734375 46.09375 17.476562 45.953125 15.175781 45.363281 C 14.449219 45.175781 13.722656 44.984375 13.539062 44.945312 C 13.339844 44.886719 13.25 44.828125 13.296875 44.78125 C 13.347656 44.730469 13.679688 44.75 14.199219 44.820312 C 15.550781 45.027344 17.402344 45.199219 17.625 45.140625 C 17.933594 45.066406 18.113281 44.886719 18.207031 44.558594 C 18.253906 44.355469 18.253906 44.230469 18.191406 44.15625 C 18.066406 44 17.925781 44.027344 17.578125 44.257812 C 17.363281 44.402344 17.195312 44.453125 17.054688 44.421875 C 16.941406 44.394531 16.113281 44.273438 15.210938 44.140625 C 14.316406 44.007812 13.546875 43.878906 13.488281 43.84375 C 13.441406 43.8125 13.40625 43.601562 13.414062 43.304688 C 13.421875 43.042969 13.414062 42.796875 13.390625 42.769531 C 13.363281 42.746094 12.445312 42.722656 11.355469 42.714844 C 9.085938 42.695312 9.21875 42.730469 8.753906 41.933594 C 8.441406 41.375 7.628906 40.523438 6.71875 39.769531 C 6.3125 39.433594 5.992188 39.085938 5.925781 38.921875 C 5.777344 38.578125 5.429688 38.367188 5.273438 38.53125 Z M 5.273438 38.53125 "/>
<path style=" stroke:none;fill-rule:nonzero;fill:rgb(100%,34.117647%,13.333333%);fill-opacity:1;" d="M 103.609375 52.558594 C 102.996094 52.777344 101.492188 53.886719 100.316406 54.984375 L 99.523438 55.722656 L 98.652344 55.675781 C 97.636719 55.617188 95.558594 55.363281 94.132812 55.117188 C 92.015625 54.765625 90.492188 54.28125 90.292969 53.902344 C 90.238281 53.796875 90.113281 53.730469 89.996094 53.730469 C 89.796875 53.730469 89.789062 53.753906 89.789062 54.214844 C 89.789062 54.835938 89.90625 54.9375 91.054688 55.289062 C 94.050781 56.214844 95.003906 56.535156 95.003906 56.601562 C 95.003906 56.640625 93.925781 56.683594 92.503906 56.699219 C 89.796875 56.726562 89.714844 56.742188 89.550781 57.175781 C 89.402344 57.546875 89.410156 57.929688 89.558594 58.019531 C 89.664062 58.09375 89.773438 58.0625 90.070312 57.847656 C 90.3125 57.675781 90.535156 57.585938 90.714844 57.585938 C 90.875 57.585938 92.386719 57.773438 94.09375 57.996094 C 98.394531 58.5625 98.984375 58.652344 99.265625 58.742188 C 99.414062 58.785156 99.753906 59.078125 100.085938 59.441406 C 100.523438 59.914062 101.367188 60.628906 101.945312 61.007812 C 101.960938 61.015625 101.617188 61.410156 101.167969 61.875 C 100.730469 62.351562 100.125 63.058594 99.828125 63.453125 C 99.316406 64.132812 99.273438 64.164062 99.023438 64.125 C 98.875 64.097656 98.460938 63.910156 98.097656 63.695312 C 97.335938 63.246094 94.902344 61.933594 94.554688 61.785156 C 94.257812 61.65625 94.167969 61.726562 93.828125 62.320312 C 93.695312 62.558594 93.5625 62.753906 93.546875 62.753906 C 93.449219 62.753906 89.632812 61.753906 89.441406 61.679688 C 89.234375 61.597656 89.042969 61.226562 89.042969 60.890625 C 89.042969 60.777344 88.753906 60.671875 88.640625 60.734375 C 88.515625 60.816406 88.257812 62.007812 88.351562 62.089844 C 88.390625 62.128906 89.109375 62.417969 89.953125 62.722656 C 91.371094 63.230469 92.894531 63.835938 92.992188 63.933594 C 93.058594 64 92.851562 64.558594 92.753906 64.558594 C 92.613281 64.558594 89.90625 63.992188 88.828125 63.738281 C 88.257812 63.605469 87.769531 63.492188 87.761719 63.492188 C 87.695312 63.492188 87.296875 64.8125 87.347656 64.886719 C 87.4375 65.035156 87.6875 64.976562 87.894531 64.753906 C 88.003906 64.640625 88.152344 64.507812 88.226562 64.46875 C 88.382812 64.386719 92.214844 65.625 92.445312 65.839844 C 92.546875 65.929688 92.570312 66.050781 92.535156 66.363281 C 92.480469 66.988281 92.554688 67.183594 92.867188 67.183594 C 93.007812 67.183594 93.820312 67.289062 94.664062 67.429688 C 95.507812 67.5625 96.742188 67.726562 97.402344 67.796875 C 98.066406 67.871094 98.644531 67.972656 98.703125 68.027344 C 98.761719 68.085938 98.84375 68.40625 98.902344 68.742188 C 98.949219 69.078125 99.097656 69.644531 99.214844 69.988281 L 99.445312 70.621094 L 98.941406 70.660156 C 98.660156 70.6875 98.121094 70.726562 97.734375 70.75 C 96.699219 70.824219 95.855469 71.015625 95.300781 71.285156 C 95.035156 71.425781 94.769531 71.53125 94.714844 71.53125 C 94.605469 71.53125 92.015625 69.636719 91.601562 69.265625 C 91.484375 69.160156 91.335938 69.070312 91.261719 69.070312 C 91.1875 69.070312 90.980469 69.308594 90.789062 69.601562 C 90.46875 70.113281 90.328125 70.21875 90.152344 70.0625 C 90.113281 70.023438 89.5 69.6875 88.796875 69.316406 C 87.28125 68.519531 86.992188 68.316406 86.925781 68.019531 C 86.800781 67.511719 86.472656 67.4375 86.257812 67.871094 C 86.097656 68.210938 86.148438 68.480469 86.4375 68.757812 C 86.621094 68.9375 88.539062 70.167969 89.566406 70.75 C 89.78125 70.875 89.953125 71.007812 89.953125 71.054688 C 89.953125 71.105469 89.90625 71.121094 89.855469 71.097656 C 88.09375 70.324219 85.957031 69.488281 85.75 69.480469 C 85.289062 69.480469 84.832031 70.105469 85.105469 70.367188 C 85.214844 70.480469 85.28125 70.480469 85.511719 70.398438 C 85.832031 70.285156 86.207031 70.269531 86.265625 70.375 C 86.289062 70.414062 86.960938 70.726562 87.753906 71.078125 C 88.546875 71.425781 89.261719 71.785156 89.34375 71.867188 C 89.484375 72.015625 89.484375 72.046875 89.34375 72.476562 C 89.269531 72.71875 89.21875 72.957031 89.242188 73 C 89.269531 73.039062 89.46875 73.113281 89.683594 73.164062 C 89.90625 73.222656 90.492188 73.386719 90.988281 73.539062 C 91.496094 73.6875 92.171875 73.894531 92.496094 73.992188 C 93.183594 74.1875 93.242188 74.261719 93.472656 75.140625 C 93.644531 75.804688 94.117188 76.75 94.753906 77.683594 C 95.019531 78.078125 95.269531 78.511719 95.292969 78.636719 C 95.398438 79.101562 95.433594 79.160156 95.597656 79.25 C 95.746094 79.324219 95.796875 79.316406 95.886719 79.191406 C 96.078125 78.929688 96.003906 78.585938 95.605469 77.863281 C 94.894531 76.585938 94.566406 75.582031 94.554688 74.671875 C 94.539062 73.769531 94.914062 73.753906 95.21875 74.640625 C 95.523438 75.519531 96.011719 75.878906 96.890625 75.878906 C 97.550781 75.878906 98.039062 75.574219 98.347656 74.96875 C 98.6875 74.28125 98.59375 73.714844 98.046875 73.121094 C 97.453125 72.476562 96.667969 72.359375 95.980469 72.804688 C 95.625 73.039062 95.558594 73.046875 95.425781 72.894531 C 95.285156 72.71875 95.773438 72.261719 96.425781 71.949219 C 97.335938 71.523438 99.304688 71.113281 99.636719 71.285156 C 99.71875 71.328125 99.828125 71.53125 99.886719 71.777344 C 100.019531 72.3125 100.375 72.703125 100.6875 72.664062 C 101.078125 72.621094 101.042969 72.195312 100.546875 70.75 C 100.191406 69.734375 100.117188 69.414062 100.109375 68.90625 C 100.101562 68.101562 100.316406 67.40625 100.574219 67.445312 C 100.6875 67.460938 100.78125 67.578125 100.863281 67.816406 C 101.21875 68.890625 102.601562 69.4375 103.675781 68.929688 C 104.46875 68.554688 104.890625 67.765625 104.835938 66.734375 C 104.800781 65.953125 104.527344 65.535156 103.839844 65.191406 C 103.023438 64.773438 102.136719 64.886719 101.449219 65.5 C 101.109375 65.796875 100.820312 65.871094 100.746094 65.675781 C 100.722656 65.617188 100.804688 65.199219 100.929688 64.753906 C 101.136719 63.984375 101.183594 63.894531 101.914062 62.960938 C 102.648438 62.007812 102.929688 61.71875 104.007812 60.800781 C 104.585938 60.308594 104.683594 60.007812 104.3125 59.914062 C 103.964844 59.832031 103.578125 59.949219 103.113281 60.292969 C 102.863281 60.472656 102.625 60.621094 102.574219 60.621094 C 102.410156 60.621094 101.765625 60.097656 101.433594 59.695312 C 100.828125 58.964844 100.523438 57.929688 100.828125 57.675781 C 100.960938 57.570312 100.988281 57.601562 101.324219 58.175781 C 101.617188 58.683594 101.996094 58.964844 102.542969 59.078125 C 103.171875 59.210938 103.578125 59.113281 103.949219 58.742188 C 104.601562 58.101562 104.71875 56.617188 104.179688 55.878906 C 103.625 55.117188 102.054688 55.265625 101.484375 56.125 C 101.324219 56.355469 101.21875 56.4375 101.09375 56.421875 C 100.953125 56.40625 100.929688 56.347656 100.945312 56.148438 C 101.003906 55.640625 101.398438 55.230469 103.34375 53.699219 C 103.898438 53.253906 104.355469 52.84375 104.355469 52.796875 C 104.355469 52.550781 103.964844 52.425781 103.609375 52.558594 Z M 103.609375 52.558594 "/>
<path style=" stroke:none;fill-rule:nonzero;fill:rgb(100%,34.117647%,13.333333%);fill-opacity:1;" d="M 18.917969 64.574219 C 18.851562 64.679688 18.777344 64.835938 18.753906 64.9375 C 18.71875 65.050781 18.4375 65.214844 17.851562 65.476562 C 17.386719 65.691406 16.585938 66.050781 16.070312 66.28125 C 15.558594 66.511719 15.101562 66.675781 15.054688 66.648438 C 15.011719 66.617188 14.878906 66.414062 14.773438 66.191406 C 14.65625 65.96875 14.523438 65.789062 14.472656 65.789062 C 14.382812 65.789062 13.628906 66.25 11.941406 67.324219 C 11 67.9375 10.832031 67.953125 10.039062 67.554688 C 9.410156 67.242188 8.464844 66.996094 7.28125 66.855469 C 6.8125 66.796875 6.339844 66.683594 6.089844 66.570312 C 5.519531 66.296875 5.1875 66.445312 5.445312 66.871094 C 5.601562 67.140625 5.800781 67.226562 6.695312 67.398438 C 8.242188 67.683594 10.097656 68.644531 10.097656 69.160156 C 10.097656 69.414062 9.921875 69.421875 9.328125 69.195312 C 9.019531 69.078125 8.613281 68.988281 8.433594 68.988281 C 7.582031 68.988281 6.84375 69.777344 6.851562 70.679688 C 6.859375 71.5625 7.449219 72.195312 8.390625 72.320312 C 8.914062 72.390625 9.292969 72.238281 9.714844 71.769531 C 10.0625 71.382812 10.128906 71.234375 10.203125 70.628906 C 10.230469 70.472656 10.511719 70.414062 10.601562 70.5625 C 10.726562 70.75 10.683594 71.441406 10.5 71.957031 C 10.152344 72.984375 9.226562 74.597656 8.929688 74.6875 C 8.847656 74.714844 8.640625 74.664062 8.464844 74.582031 C 8.292969 74.492188 8.050781 74.402344 7.929688 74.371094 C 7.613281 74.296875 7.117188 74.507812 7.117188 74.714844 C 7.117188 75 7.480469 75.214844 9.003906 75.820312 C 10.144531 76.28125 10.652344 76.632812 11.089844 77.296875 C 11.378906 77.75 11.402344 77.816406 11.289062 77.90625 C 11.1875 77.980469 11.054688 77.960938 10.683594 77.824219 C 10.246094 77.667969 10.164062 77.660156 9.730469 77.757812 C 8.457031 78.035156 7.671875 79.457031 8.175781 80.570312 C 8.558594 81.425781 9.300781 81.949219 10.121094 81.949219 C 10.707031 81.949219 11.113281 81.785156 11.535156 81.390625 C 11.976562 80.972656 12.164062 80.539062 12.164062 79.921875 C 12.164062 79.4375 12.289062 79.160156 12.496094 79.160156 C 12.539062 79.160156 12.792969 79.488281 13.066406 79.890625 C 13.554688 80.613281 13.5625 80.621094 13.8125 81.890625 C 14.027344 82.949219 14.070312 83.375 14.070312 84.3125 C 14.070312 85.609375 14.144531 85.828125 14.507812 85.664062 C 14.8125 85.527344 14.996094 85.117188 15.046875 84.476562 C 15.0625 84.171875 15.128906 83.886719 15.175781 83.84375 C 15.351562 83.695312 16.535156 83.597656 17.097656 83.679688 C 18.03125 83.8125 18.785156 84.277344 18.503906 84.558594 C 18.414062 84.65625 18.332031 84.65625 18.113281 84.582031 C 17.148438 84.246094 15.996094 84.796875 15.714844 85.722656 C 15.5 86.4375 16.144531 87.519531 17.0625 87.96875 C 17.5625 88.214844 17.933594 88.242188 18.3125 88.050781 C 19.089844 87.660156 19.488281 86.820312 19.289062 85.96875 C 19.222656 85.671875 19.230469 85.574219 19.324219 85.484375 C 19.472656 85.335938 19.621094 85.453125 19.820312 85.855469 C 19.9375 86.109375 19.953125 86.429688 19.945312 88.167969 C 19.9375 89.28125 19.9375 90.242188 19.9375 90.300781 C 19.953125 90.472656 20.285156 90.375 20.457031 90.152344 C 20.796875 89.691406 20.871094 89.144531 20.914062 86.953125 C 20.945312 85.089844 20.96875 84.835938 21.109375 84.605469 C 21.597656 83.8125 25.8125 80.285156 27.417969 79.324219 C 27.597656 79.21875 27.945312 79.109375 28.203125 79.085938 C 28.566406 79.046875 28.683594 79.003906 28.699219 78.890625 C 28.734375 78.734375 28.3125 78.308594 28.039062 78.21875 C 27.824219 78.144531 27.324219 78.390625 25.652344 79.421875 C 24.113281 80.375 23.269531 80.84375 23.203125 80.777344 C 23.164062 80.734375 24.460938 79.21875 25.503906 78.085938 C 26.140625 77.378906 26.398438 76.960938 26.398438 76.601562 C 26.398438 76.320312 25.925781 75.78125 25.703125 75.8125 C 25.554688 75.835938 25.523438 75.910156 25.480469 76.3125 C 25.4375 76.648438 25.371094 76.855469 25.230469 77.003906 C 25.058594 77.191406 19.554688 82 18.894531 82.53125 C 18.652344 82.738281 18.5625 82.753906 17.570312 82.785156 C 16.972656 82.8125 16.246094 82.890625 15.90625 82.976562 C 15.582031 83.054688 15.292969 83.105469 15.269531 83.089844 C 15.25 83.066406 15.175781 82.53125 15.101562 81.90625 C 15.027344 81.277344 14.894531 80.414062 14.804688 79.988281 C 14.722656 79.5625 14.648438 79.167969 14.648438 79.109375 C 14.648438 78.929688 14.988281 78.757812 16.195312 78.347656 C 18.066406 77.699219 19.605469 77.101562 19.703125 76.976562 C 19.777344 76.886719 19.761719 76.742188 19.621094 76.320312 C 19.480469 75.886719 19.464844 75.757812 19.546875 75.65625 C 19.6875 75.484375 22.90625 73.328125 23.097656 73.277344 C 23.179688 73.253906 23.386719 73.3125 23.542969 73.410156 C 23.890625 73.605469 24.023438 73.625 24.15625 73.476562 C 24.222656 73.386719 24.15625 73.230469 23.851562 72.792969 C 23.617188 72.464844 23.402344 72.238281 23.328125 72.253906 C 23.261719 72.269531 22.335938 72.753906 21.269531 73.335938 C 20.199219 73.917969 19.207031 74.417969 19.074219 74.445312 C 18.859375 74.492188 18.800781 74.460938 18.6875 74.261719 C 18.613281 74.132812 18.570312 73.992188 18.601562 73.941406 C 18.679688 73.835938 20.613281 72.359375 21.796875 71.507812 L 22.683594 70.867188 L 22.5 70.5625 C 21.871094 69.546875 21.871094 69.539062 21.683594 69.765625 C 21.617188 69.839844 21.597656 69.996094 21.640625 70.21875 C 21.691406 70.515625 21.671875 70.570312 21.449219 70.777344 C 21.316406 70.898438 20.480469 71.398438 19.605469 71.898438 C 18.71875 72.390625 17.933594 72.835938 17.859375 72.875 C 17.742188 72.949219 17.644531 72.902344 17.363281 72.628906 C 16.714844 72.03125 16.78125 72.039062 16.246094 72.53125 C 15.980469 72.777344 15.410156 73.269531 14.980469 73.632812 C 14.546875 73.984375 13.738281 74.6875 13.183594 75.199219 C 12.621094 75.707031 12.089844 76.125 12.015625 76.125 C 11.933594 76.125 11.675781 75.992188 11.429688 75.828125 C 10.980469 75.527344 9.921875 75.058594 9.707031 75.058594 C 9.523438 75.058594 9.609375 74.917969 10.285156 74.015625 C 11.097656 72.949219 11.617188 72.046875 11.800781 71.398438 C 11.882812 71.097656 12.007812 70.835938 12.082031 70.792969 C 12.246094 70.703125 15.65625 69.972656 15.898438 69.972656 C 16.144531 69.972656 16.171875 69.765625 15.988281 69.167969 C 15.863281 68.75 15.847656 68.59375 15.921875 68.519531 C 16.019531 68.414062 17.832031 67.707031 18.84375 67.378906 C 19.421875 67.191406 19.449219 67.191406 19.8125 67.324219 C 20.160156 67.453125 20.199219 67.453125 20.324219 67.332031 C 20.441406 67.214844 20.441406 67.175781 20.285156 66.878906 C 19.984375 66.289062 19.769531 66.296875 17.578125 66.988281 C 15.566406 67.609375 15.476562 67.632812 15.484375 67.542969 C 15.484375 67.503906 16.320312 67.070312 17.34375 66.570312 C 18.363281 66.078125 19.28125 65.59375 19.382812 65.484375 C 19.570312 65.28125 19.605469 64.976562 19.457031 64.617188 C 19.347656 64.34375 19.082031 64.320312 18.917969 64.574219 Z M 18.917969 64.574219 "/>
<path style=" stroke:none;fill-rule:nonzero;fill:rgb(100%,34.117647%,13.333333%);fill-opacity:1;" d="M 83.070312 73.359375 C 82.9375 73.558594 82.839844 73.777344 82.839844 73.84375 C 82.839844 74.042969 83.109375 74.402344 84.683594 76.273438 C 86.023438 77.871094 86.246094 78.175781 86.097656 78.175781 C 86 78.175781 85.03125 77.578125 83.898438 76.8125 C 81.945312 75.492188 81.539062 75.371094 81.042969 75.910156 C 80.628906 76.355469 80.695312 76.484375 81.347656 76.535156 C 81.644531 76.558594 81.945312 76.609375 82.011719 76.648438 C 82.199219 76.773438 88.492188 82.113281 88.640625 82.277344 C 88.714844 82.367188 88.796875 82.664062 88.828125 82.992188 C 88.902344 83.679688 89.054688 84.296875 89.335938 84.976562 C 89.457031 85.261719 89.53125 85.542969 89.515625 85.589844 C 89.492188 85.648438 89.085938 85.78125 88.621094 85.878906 C 88.152344 85.984375 87.265625 86.230469 86.660156 86.4375 C 85.800781 86.722656 85.535156 86.78125 85.445312 86.707031 C 85.378906 86.65625 85.046875 86.09375 84.714844 85.453125 C 83.609375 83.359375 82.886719 82.15625 82.722656 82.128906 C 82.632812 82.113281 82.339844 82.203125 82.070312 82.328125 L 81.570312 82.5625 L 80.867188 81.828125 C 80.488281 81.414062 79.816406 80.703125 79.386719 80.234375 C 78.542969 79.308594 78.585938 79.40625 78.742188 78.617188 C 78.78125 78.445312 78.757812 78.339844 78.667969 78.265625 C 78.558594 78.175781 78.46875 78.226562 78.039062 78.636719 C 77.765625 78.890625 77.542969 79.144531 77.542969 79.191406 C 77.542969 79.234375 78.039062 79.921875 78.640625 80.71875 C 79.867188 82.308594 80.4375 83.121094 80.4375 83.261719 C 80.4375 83.367188 80.105469 83.664062 79.984375 83.671875 C 79.933594 83.671875 79.097656 82.875 78.121094 81.90625 C 77.144531 80.941406 76.308594 80.144531 76.277344 80.144531 C 76.101562 80.144531 75.148438 80.980469 75.191406 81.085938 C 75.257812 81.25 75.523438 81.316406 75.710938 81.21875 C 76.003906 81.0625 76.175781 81.121094 76.523438 81.472656 C 76.820312 81.785156 78.824219 84.289062 78.980469 84.558594 C 79.023438 84.625 78.964844 84.769531 78.839844 84.925781 C 78.734375 85.074219 78.578125 85.3125 78.492188 85.46875 L 78.351562 85.746094 L 78.625 85.960938 C 78.773438 86.074219 79.402344 86.609375 80.015625 87.140625 C 80.636719 87.683594 81.554688 88.453125 82.050781 88.855469 C 82.558594 89.257812 82.996094 89.644531 83.035156 89.71875 C 83.078125 89.800781 83.003906 90.046875 82.804688 90.472656 C 82.648438 90.816406 82.457031 91.367188 82.382812 91.703125 C 82.308594 92.039062 82.242188 92.328125 82.234375 92.335938 C 82.226562 92.34375 81.789062 92.113281 81.265625 91.824219 C 80.132812 91.195312 79.207031 90.832031 78.417969 90.710938 C 78.097656 90.660156 77.789062 90.578125 77.730469 90.53125 C 77.640625 90.449219 77.46875 89.996094 76.613281 87.648438 C 76.441406 87.148438 76.257812 86.714844 76.21875 86.675781 C 76.167969 86.625 75.902344 86.707031 75.546875 86.871094 C 75.050781 87.09375 74.941406 87.117188 74.851562 87.027344 C 74.636719 86.804688 73.074219 83.875 73.074219 83.695312 C 73.074219 83.597656 73.113281 83.425781 73.164062 83.3125 C 73.238281 83.148438 73.238281 83.074219 73.15625 82.976562 C 73 82.785156 72.792969 82.828125 72.492188 83.097656 C 72.253906 83.320312 72.230469 83.382812 72.269531 83.671875 C 72.296875 83.851562 72.699219 84.8125 73.179688 85.804688 C 73.660156 86.796875 74.015625 87.609375 73.984375 87.609375 C 73.941406 87.609375 73.769531 87.394531 73.59375 87.132812 C 72.71875 85.84375 71.707031 84.425781 71.527344 84.230469 C 71.410156 84.113281 71.226562 83.992188 71.121094 83.96875 C 70.878906 83.902344 70.257812 84.195312 70.257812 84.359375 C 70.257812 84.550781 70.5 84.738281 70.722656 84.738281 C 70.839844 84.738281 71.003906 84.820312 71.09375 84.917969 C 71.335938 85.179688 72.898438 87.585938 73.039062 87.886719 C 73.148438 88.132812 73.140625 88.152344 72.726562 88.519531 L 72.296875 88.890625 L 72.75 89.382812 C 73.347656 90.039062 74.464844 91.324219 74.753906 91.6875 C 75.035156 92.046875 75.035156 92.164062 74.753906 92.933594 C 74.5625 93.492188 74.53125 93.71875 74.480469 95.195312 C 74.4375 96.207031 74.371094 96.9375 74.3125 97.09375 C 74.109375 97.585938 74.429688 97.863281 74.792969 97.511719 C 74.984375 97.3125 75.007812 97.214844 75.066406 96.328125 C 75.175781 94.820312 75.613281 93.367188 76.109375 92.867188 C 76.34375 92.636719 76.40625 92.613281 76.515625 92.703125 C 76.648438 92.808594 76.648438 92.84375 76.464844 93.640625 C 76.152344 95 77.535156 96.074219 78.832031 95.492188 C 79.769531 95.074219 80.089844 93.671875 79.421875 92.957031 C 79.082031 92.597656 78.566406 92.359375 78.105469 92.34375 C 77.722656 92.328125 77.664062 92.300781 77.640625 92.144531 C 77.609375 91.898438 78.078125 91.761719 78.734375 91.816406 C 79.816406 91.925781 82.09375 92.769531 82.09375 93.0625 C 82.09375 93.136719 82.035156 93.402344 81.960938 93.648438 C 81.644531 94.722656 82.441406 95.246094 82.789062 94.1875 C 82.855469 93.976562 83.011719 93.390625 83.136719 92.898438 C 83.433594 91.660156 83.722656 91.078125 84.304688 90.5625 C 84.566406 90.339844 84.816406 90.160156 84.867188 90.175781 C 84.914062 90.203125 84.941406 90.464844 84.921875 90.867188 C 84.898438 91.40625 84.921875 91.597656 85.074219 91.949219 C 85.535156 93 86.792969 93.484375 87.84375 92.992188 C 88.679688 92.605469 89.300781 91.585938 89.167969 90.808594 C 89.078125 90.292969 88.640625 89.660156 88.183594 89.375 C 87.804688 89.144531 87.71875 89.125 86.941406 89.125 C 86.15625 89.125 86.105469 89.109375 86.082031 88.953125 C 86.050781 88.734375 87.167969 87.683594 87.5625 87.550781 C 87.71875 87.503906 88.332031 87.289062 88.9375 87.085938 C 89.78125 86.796875 90.269531 86.683594 91.039062 86.601562 C 92.105469 86.476562 92.332031 86.371094 92.230469 86.058594 C 92.148438 85.78125 91.867188 85.679688 91.039062 85.640625 L 90.253906 85.601562 L 90.085938 85.148438 C 89.847656 84.484375 89.839844 82.933594 90.085938 82.523438 C 90.1875 82.351562 90.320312 82.234375 90.417969 82.234375 C 90.558594 82.234375 90.585938 82.308594 90.617188 82.933594 C 90.667969 83.679688 90.773438 83.976562 91.171875 84.34375 C 91.429688 84.589844 91.925781 84.820312 92.199219 84.820312 C 93.148438 84.820312 94.257812 83.632812 94.257812 82.605469 C 94.257812 81.5625 93.023438 80.867188 91.859375 81.25 C 91.203125 81.464844 91.0625 81.195312 91.617188 80.785156 C 91.890625 80.578125 92.726562 80.421875 94.300781 80.265625 C 95.863281 80.113281 96.113281 80.0625 96.144531 79.882812 C 96.261719 79.265625 94.523438 79.167969 91.757812 79.621094 L 90.378906 79.839844 L 89.597656 79.257812 C 87.613281 77.757812 84.558594 74.96875 83.972656 74.105469 C 83.847656 73.925781 83.714844 73.605469 83.683594 73.410156 C 83.589844 72.902344 83.367188 72.882812 83.070312 73.359375 Z M 83.070312 73.359375 "/>
<path style=" stroke:none;fill-rule:nonzero;fill:rgb(100%,34.117647%,13.333333%);fill-opacity:1;" d="M 31.117188 80.921875 C 31.050781 81.007812 31.035156 81.171875 31.066406 81.398438 C 31.117188 81.742188 31.089844 81.800781 30.601562 82.546875 C 30.3125 82.984375 29.839844 83.703125 29.550781 84.164062 C 29.261719 84.617188 28.964844 84.984375 28.90625 84.984375 C 28.839844 84.984375 28.625 84.886719 28.417969 84.769531 C 28.21875 84.65625 28.003906 84.574219 27.945312 84.597656 C 27.898438 84.617188 27.515625 85.371094 27.101562 86.265625 C 26.695312 87.167969 26.265625 88.003906 26.152344 88.125 C 25.96875 88.324219 25.851562 88.363281 25.242188 88.429688 C 24.421875 88.519531 23.71875 88.75 22.550781 89.289062 C 22.09375 89.496094 21.542969 89.691406 21.324219 89.71875 C 20.640625 89.800781 20.457031 90.210938 21.054688 90.359375 C 21.300781 90.414062 21.457031 90.398438 21.757812 90.292969 C 23.417969 89.667969 24.703125 89.40625 25.503906 89.527344 C 26.347656 89.652344 26.359375 90.046875 25.523438 90.195312 C 24.585938 90.367188 24.015625 90.859375 23.933594 91.585938 C 23.851562 92.351562 24.339844 93.226562 24.960938 93.433594 C 25.753906 93.695312 26.722656 93.351562 27.070312 92.679688 C 27.285156 92.261719 27.300781 91.523438 27.101562 91.144531 C 26.953125 90.859375 26.988281 90.644531 27.175781 90.644531 C 27.390625 90.644531 27.714844 91.136719 27.9375 91.816406 C 28.128906 92.390625 28.171875 92.679688 28.203125 93.71875 C 28.246094 95.148438 28.253906 95.132812 27.507812 95.230469 C 27.117188 95.289062 26.988281 95.34375 26.796875 95.558594 C 26.507812 95.878906 26.507812 96.035156 26.78125 96.15625 C 26.953125 96.238281 27.257812 96.214844 28.433594 96.027344 C 30.105469 95.753906 30.695312 95.761719 31.398438 96.082031 C 32.042969 96.378906 32.027344 96.558594 31.363281 96.738281 C 29.519531 97.25 29.261719 99.683594 30.96875 100.539062 C 32.457031 101.285156 34.011719 100.414062 34.011719 98.839844 C 34.011719 98.324219 33.746094 97.550781 33.523438 97.421875 C 33.398438 97.339844 33.410156 97.085938 33.550781 96.96875 C 33.632812 96.902344 33.839844 96.953125 34.433594 97.199219 C 35.195312 97.519531 35.230469 97.542969 36.222656 98.578125 C 36.96875 99.347656 37.378906 99.855469 37.753906 100.472656 C 38.332031 101.421875 38.488281 101.5625 38.738281 101.339844 C 39.042969 101.0625 38.929688 100.480469 38.390625 99.59375 C 38.28125 99.421875 38.300781 99.390625 38.730469 99.003906 C 39.390625 98.414062 40.210938 98.019531 40.832031 97.96875 C 41.203125 97.9375 41.378906 97.960938 41.5 98.058594 C 41.652344 98.167969 41.652344 98.191406 41.542969 98.296875 C 41.476562 98.355469 41.246094 98.476562 41.03125 98.550781 C 40.625 98.699219 40.027344 99.257812 39.886719 99.636719 C 39.839844 99.75 39.804688 100.039062 39.804688 100.273438 C 39.804688 100.867188 40.113281 101.285156 40.773438 101.605469 C 41.1875 101.808594 41.351562 101.84375 41.964844 101.84375 C 42.617188 101.84375 42.695312 101.824219 42.984375 101.605469 C 43.800781 100.988281 43.792969 99.847656 42.984375 99.003906 C 42.628906 98.640625 42.667969 98.398438 43.066406 98.46875 C 43.464844 98.542969 43.96875 99.167969 44.960938 100.808594 C 45.894531 102.351562 46.085938 102.539062 46.253906 102.105469 C 46.441406 101.621094 45.796875 100.175781 44.636719 98.488281 C 44.28125 97.960938 43.917969 97.421875 43.835938 97.289062 C 43.6875 97.050781 43.6875 97.035156 43.992188 95.796875 C 44.953125 91.84375 46.011719 89.011719 46.757812 88.421875 C 46.9375 88.273438 47.085938 88.109375 47.085938 88.042969 C 47.085938 87.90625 46.75 87.773438 46.367188 87.773438 C 45.921875 87.773438 45.730469 88.050781 44.828125 89.957031 C 44.390625 90.898438 43.894531 91.890625 43.734375 92.164062 C 43.488281 92.597656 43.453125 92.628906 43.445312 92.425781 C 43.445312 92.164062 43.917969 88.882812 44.027344 88.390625 C 44.117188 87.976562 43.992188 87.4375 43.746094 87.207031 C 43.652344 87.117188 43.414062 87.019531 43.222656 86.984375 C 42.769531 86.914062 42.695312 87.078125 42.941406 87.578125 C 43.03125 87.78125 43.117188 88.027344 43.117188 88.140625 C 43.117188 88.390625 40.90625 96.082031 40.722656 96.460938 C 40.632812 96.65625 40.417969 96.847656 40.011719 97.085938 C 39.558594 97.363281 38.902344 97.90625 38.035156 98.75 C 38.019531 98.757812 37.785156 98.476562 37.519531 98.132812 C 37.257812 97.78125 36.652344 97.101562 36.1875 96.617188 C 35.71875 96.125 35.335938 95.664062 35.335938 95.574219 C 35.335938 95.402344 35.625 94.960938 36.121094 94.375 C 36.628906 93.785156 38.207031 91.660156 38.355469 91.382812 C 38.464844 91.167969 38.464844 91.136719 38.316406 90.949219 C 38.226562 90.832031 38.019531 90.660156 37.859375 90.5625 C 37.703125 90.464844 37.570312 90.339844 37.570312 90.292969 C 37.5625 90.085938 39.109375 86.511719 39.285156 86.328125 C 39.417969 86.183594 39.558594 86.132812 39.796875 86.132812 C 40.054688 86.132812 40.152344 86.09375 40.21875 85.960938 C 40.277344 85.871094 40.292969 85.773438 40.269531 85.746094 C 40.195312 85.664062 39.117188 85.230469 39.011719 85.230469 C 38.960938 85.230469 38.441406 86.09375 37.867188 87.140625 C 37.289062 88.199219 36.71875 89.175781 36.59375 89.332031 L 36.363281 89.601562 L 36.097656 89.464844 C 35.875 89.347656 35.832031 89.289062 35.882812 89.144531 C 36.054688 88.5625 36.867188 86.378906 37.15625 85.679688 C 37.6875 84.441406 37.695312 84.507812 36.96875 84.148438 C 36.511719 83.925781 36.328125 83.867188 36.253906 83.941406 C 36.121094 84.074219 36.140625 84.15625 36.378906 84.46875 C 36.542969 84.6875 36.585938 84.804688 36.542969 85.007812 C 36.511719 85.15625 36.074219 86.066406 35.558594 87.035156 C 34.527344 88.996094 34.683594 88.847656 33.789062 88.71875 C 33.382812 88.660156 33.351562 88.667969 33.277344 88.847656 C 33.144531 89.183594 32.125 92.613281 31.902344 93.507812 C 31.597656 94.722656 31.644531 94.664062 30.875 94.664062 C 30.519531 94.664062 29.917969 94.722656 29.542969 94.796875 C 29.171875 94.859375 28.847656 94.910156 28.832031 94.894531 C 28.816406 94.878906 28.839844 94.507812 28.890625 94.082031 C 29.003906 93.128906 28.929688 91.398438 28.765625 90.851562 C 28.527344 90.085938 28.492188 90.144531 30.140625 88.554688 L 31.644531 87.09375 L 31.199219 86.691406 C 30.949219 86.476562 30.71875 86.296875 30.6875 86.296875 C 30.644531 86.296875 30.621094 86.238281 30.621094 86.171875 C 30.621094 86.019531 32.703125 83.246094 32.929688 83.113281 C 33.019531 83.066406 33.191406 83.015625 33.300781 83.015625 C 33.5 83.015625 33.765625 82.828125 33.765625 82.6875 C 33.765625 82.597656 33.359375 82.320312 33.117188 82.234375 C 32.753906 82.128906 32.5625 82.300781 30.890625 84.304688 C 29.992188 85.394531 29.710938 85.679688 29.710938 85.527344 C 29.710938 85.5 30.105469 84.851562 30.585938 84.074219 C 31.523438 82.5625 31.945312 81.769531 31.945312 81.488281 C 31.945312 81.316406 31.445312 80.800781 31.289062 80.800781 C 31.25 80.800781 31.175781 80.859375 31.117188 80.921875 Z M 31.117188 80.921875 "/>
<path style=" stroke:none;fill-rule:nonzero;fill:rgb(100%,34.117647%,13.333333%);fill-opacity:1;" d="M 66.964844 85.886719 C 66.371094 86.15625 66.363281 86.207031 66.75 89.242188 C 66.859375 90.109375 66.949219 91.015625 66.941406 91.25 L 66.933594 91.671875 L 66.476562 90.726562 C 66.230469 90.210938 65.796875 89.265625 65.527344 88.632812 C 64.839844 87.042969 64.5 86.730469 63.761719 86.976562 C 63.28125 87.140625 63.28125 87.363281 63.746094 87.632812 C 63.945312 87.75 64.152344 87.898438 64.203125 87.960938 C 64.316406 88.09375 66.667969 95.796875 66.75 96.289062 C 66.792969 96.550781 66.75 96.714844 66.511719 97.214844 C 66.203125 97.839844 66.039062 98.378906 65.875 99.191406 C 65.824219 99.453125 65.742188 99.667969 65.691406 99.667969 C 65.640625 99.667969 65.113281 99.503906 64.515625 99.296875 C 63.910156 99.09375 63.074219 98.855469 62.644531 98.765625 C 62.214844 98.667969 61.808594 98.542969 61.753906 98.488281 C 61.652344 98.398438 61.660156 98.140625 61.769531 96.953125 C 61.84375 96.164062 61.925781 94.984375 61.949219 94.320312 C 62.015625 92.941406 62.042969 92.992188 61.199219 92.890625 C 60.824219 92.84375 60.71875 92.800781 60.660156 92.664062 C 60.585938 92.464844 59.996094 88.882812 59.996094 88.625 C 59.996094 88.535156 60.148438 88.324219 60.328125 88.160156 C 60.675781 87.855469 60.699219 87.796875 60.59375 87.625 C 60.535156 87.542969 60.402344 87.542969 59.90625 87.617188 C 59.566406 87.675781 59.253906 87.757812 59.203125 87.804688 C 59.128906 87.871094 59.144531 88.378906 59.261719 89.78125 C 59.441406 92.113281 59.460938 92.769531 59.3125 92.828125 C 59.253906 92.84375 59.09375 92.875 58.964844 92.882812 C 58.722656 92.898438 58.722656 92.898438 58.492188 91.957031 C 58.367188 91.441406 58.128906 90.347656 57.960938 89.539062 C 57.796875 88.726562 57.628906 88.027344 57.597656 87.988281 C 57.554688 87.953125 57.226562 87.945312 56.859375 87.976562 C 56.222656 88.035156 56.191406 88.042969 56.191406 88.234375 C 56.191406 88.355469 56.25 88.453125 56.339844 88.480469 C 56.828125 88.644531 56.9375 88.707031 57.011719 88.953125 C 57.09375 89.175781 57.433594 92.554688 57.433594 93.0625 C 57.433594 93.21875 57.375 93.277344 57.125 93.34375 C 56.628906 93.484375 56.25 93.746094 56.316406 93.910156 C 56.347656 93.984375 56.570312 94.746094 56.820312 95.597656 C 57.066406 96.453125 57.433594 97.65625 57.640625 98.28125 C 57.847656 98.90625 58.011719 99.488281 58.011719 99.578125 C 58.011719 99.691406 57.835938 99.855469 57.457031 100.101562 C 57.140625 100.300781 56.671875 100.675781 56.40625 100.929688 C 56.042969 101.285156 55.902344 101.375 55.84375 101.292969 C 55.800781 101.234375 55.621094 100.890625 55.429688 100.53125 C 54.757812 99.226562 54.03125 98.222656 53.484375 97.855469 C 53.210938 97.667969 53.128906 97.558594 53.128906 97.378906 C 53.128906 97.175781 53.34375 96.140625 53.808594 94.1875 C 53.921875 93.671875 53.957031 93.402344 53.898438 93.34375 C 53.847656 93.292969 53.59375 93.238281 53.328125 93.210938 C 52.597656 93.136719 52.523438 93.089844 52.582031 92.628906 C 52.617188 92.417969 52.671875 91.652344 52.714844 90.929688 C 52.816406 89.464844 52.878906 89.160156 53.179688 88.972656 C 53.425781 88.808594 53.453125 88.460938 53.210938 88.390625 C 52.945312 88.304688 52.46875 88.4375 52.34375 88.625 C 52.175781 88.871094 52.078125 89.382812 51.886719 90.941406 C 51.796875 91.703125 51.707031 92.480469 51.679688 92.671875 C 51.574219 93.457031 51.5 92.917969 51.449219 91.03125 C 51.398438 88.871094 51.332031 88.46875 50.976562 88.289062 C 50.679688 88.140625 50.257812 88.160156 50.199219 88.316406 C 50.117188 88.527344 50.140625 88.578125 50.398438 88.839844 L 50.644531 89.09375 L 50.644531 90.875 C 50.644531 91.851562 50.621094 92.734375 50.597656 92.828125 C 50.554688 92.972656 50.457031 93.015625 50.042969 93.074219 L 49.527344 93.148438 L 49.539062 93.476562 C 49.546875 93.65625 49.636719 94.375 49.734375 95.074219 C 49.835938 95.773438 49.941406 96.558594 49.960938 96.820312 C 50 97.289062 50 97.296875 49.6875 97.558594 C 48.917969 98.191406 48.320312 98.878906 47.660156 99.875 C 47.261719 100.457031 46.824219 101.023438 46.683594 101.128906 C 46.476562 101.277344 46.425781 101.375 46.441406 101.539062 C 46.46875 101.734375 46.5 101.757812 46.738281 101.742188 C 47.085938 101.734375 47.171875 101.652344 47.808594 100.800781 C 48.4375 99.945312 49.332031 99.117188 49.984375 98.773438 C 50.863281 98.304688 51.210938 98.535156 50.5625 99.152344 C 50.074219 99.601562 49.785156 100.226562 49.84375 100.703125 C 49.941406 101.578125 50.664062 102.210938 51.554688 102.210938 C 51.960938 102.210938 52.09375 102.171875 52.433594 101.941406 C 52.90625 101.628906 53.210938 101.101562 53.210938 100.609375 C 53.210938 100.136719 52.839844 99.429688 52.449219 99.183594 C 52.277344 99.070312 52.136719 98.921875 52.136719 98.832031 C 52.136719 98.585938 52.625 98.640625 53.078125 98.9375 C 53.816406 99.429688 55.355469 101.351562 55.363281 101.800781 C 55.363281 101.941406 55.238281 102.121094 54.941406 102.382812 C 54.550781 102.742188 54.527344 102.792969 54.550781 103.128906 C 54.570312 103.425781 54.609375 103.492188 54.757812 103.507812 C 55 103.539062 55.238281 103.367188 56.421875 102.316406 C 57.53125 101.339844 58.027344 101.0625 58.796875 100.996094 C 59.269531 100.964844 59.335938 100.972656 59.335938 101.101562 C 59.335938 101.1875 59.203125 101.390625 59.039062 101.570312 C 58.640625 102.015625 58.507812 102.351562 58.507812 102.949219 C 58.507812 103.53125 58.632812 103.867188 59.003906 104.292969 C 59.765625 105.148438 61.15625 105.222656 62.074219 104.441406 C 62.523438 104.054688 62.730469 103.613281 62.730469 102.980469 C 62.730469 102.097656 62.265625 101.449219 61.339844 101.03125 C 61.074219 100.914062 60.992188 100.824219 60.992188 100.683594 C 60.992188 100.472656 61.039062 100.457031 61.859375 100.308594 C 62.671875 100.167969 62.859375 100.183594 64.25 100.53125 C 65.160156 100.75 65.734375 100.949219 66.425781 101.277344 C 66.949219 101.523438 67.4375 101.71875 67.503906 101.703125 C 67.578125 101.6875 67.675781 101.613281 67.726562 101.53125 C 67.882812 101.292969 67.5625 100.816406 67.03125 100.511719 C 66.785156 100.367188 66.519531 100.21875 66.460938 100.175781 C 66.171875 100.003906 66.765625 98.476562 67.371094 97.820312 C 67.761719 97.402344 68.140625 97.175781 68.324219 97.238281 C 68.480469 97.296875 68.472656 97.566406 68.304688 97.699219 C 68.238281 97.765625 68.082031 97.976562 67.957031 98.183594 C 67.652344 98.707031 67.644531 99.511719 67.957031 99.972656 C 68.265625 100.4375 68.671875 100.609375 69.433594 100.609375 C 70.464844 100.609375 71.277344 100.109375 71.515625 99.332031 C 71.78125 98.445312 71.027344 97.394531 69.996094 97.222656 C 69.714844 97.175781 69.628906 97.125 69.613281 96.984375 C 69.589844 96.835938 69.636719 96.796875 69.894531 96.746094 C 70.375 96.65625 70.8125 96.8125 72.558594 97.65625 C 73.445312 98.085938 74.230469 98.4375 74.324219 98.4375 C 74.519531 98.4375 74.539062 98.109375 74.347656 97.8125 C 74.050781 97.371094 72.078125 96.253906 70.507812 95.648438 C 70.117188 95.5 69.738281 95.320312 69.65625 95.246094 C 69.582031 95.171875 69.265625 94.394531 68.976562 93.515625 C 67.667969 89.667969 67.105469 86.894531 67.480469 86.214844 C 67.5625 86.074219 67.570312 85.96875 67.519531 85.871094 C 67.421875 85.691406 67.402344 85.691406 66.964844 85.886719 Z M 66.964844 85.886719 "/>
</g>
</svg>
